<?xml version="1.0" standalone="no"?><!DOCTYPE svg PUBLIC "-//W3C//DTD SVG 1.1//EN" "http://www.w3.org/Graphics/SVG/1.1/DTD/svg11.dtd"><svg t="1620296487922" class="icon" viewBox="0 0 1092 1024" version="1.1" xmlns="http://www.w3.org/2000/svg" p-id="1141" xmlns:xlink="http://www.w3.org/1999/xlink" width="213.28125" height="200"><defs><style type="text/css"></style></defs><path d="M887.466667 136.533333m-136.533334 0a136.533333 136.533333 0 1 0 273.066667 0 136.533333 136.533333 0 1 0-273.066667 0Z" fill="#444444" p-id="1142"></path><path d="M955.733333 819.2m-136.533333 0a136.533333 136.533333 0 1 0 273.066667 0 136.533333 136.533333 0 1 0-273.066667 0Z" fill="#444444" p-id="1143"></path><path d="M204.8 136.533333m-136.533333 0a136.533333 136.533333 0 1 0 273.066666 0 136.533333 136.533333 0 1 0-273.066666 0Z" fill="#444444" p-id="1144"></path><path d="M136.533333 887.466667m-136.533333 0a136.533333 136.533333 0 1 0 273.066667 0 136.533333 136.533333 0 1 0-273.066667 0Z" fill="#444444" p-id="1145"></path><path d="M170.871467 170.5984l67.584-67.584L443.050667 307.677867l-67.584 67.584zM653.1072 652.0832l58.641067-75.434667 307.2 238.865067-58.709334 75.434667zM651.8784 305.152l239.0016-204.8 62.122667 72.635733-238.933334 204.731734zM136.874667 819.063467l238.933333-238.933334 67.584 67.584-238.933333 238.933334z" fill="#444444" p-id="1146"></path><path d="M546.133333 368.64A109.226667 109.226667 0 1 1 436.906667 477.866667 109.226667 109.226667 0 0 1 546.133333 368.64M546.133333 273.066667a204.8 204.8 0 1 0 204.8 204.8 204.8 204.8 0 0 0-204.8-204.8z" fill="#EF6730" p-id="1147"></path></svg>